#!OML:ASF Y:\EmotionMaleHayes\Project 1\Capture day 1\Session 1\Male1.ASF
:FULLY-SPECIFIED
:DEGREES
207
root -29.9597 16.7207 0.868799 -169.846 63.5807 -166.927
lowerback 8.34251 0.552384 4.48189
upperback 8.61672 1.48294 0.869903
thorax 4.3924 1.18769 -1.64763
lowerneck -20.4983 4.62762 5.21916
upperneck 29.2312 8.93073 -9.27246
head 14.121 3.48011 -2.90865
rclavicle 3.63776e-014 2.98177e-015
rhumerus -23.3778 20.5712 -92.5305
rradius 34.0125
rwrist -2.21726
rhand -8.31482 -34.5174
rfingers 7.12502
rthumb 17.6059 -63.7402
lclavicle 3.63776e-014 2.98177e-015
lhumerus -24.1713 1.33487 84.1961
lradius 20.307
lwrist -5.70916
lhand -21.3138 -24.2664
lfingers 7.12502
lthumb 5.07141 5.65294
rfemur 12.2654 -11.5554 18.9309
rtibia 7.0904
rfoot -22.6632 -16.2248
rtoes 6.17115
lfemur -12.9358 10.0247 2.89527
ltibia 21.5497
lfoot -11.9446 14.605
ltoes -8.44988
208
root -29.9353 16.7131 0.811129 -169.651 63.3373 -166.818
lowerback 8.18355 0.608339 4.4588
upperback 8.55217 1.54269 0.743577
thorax 4.41856 1.21562 -1.76616
lowerneck -20.2587 4.6802 5.29839
upperneck 28.9854 8.99242 -9.37662
head 13.9792 3.51353 -2.95023
rclavicle 2.04748e-014 2.0276e-014
rhumerus -23.4286 20.4341 -92.6803
rradius 34.2941
rwrist -1.96737
rhand -7.9662 -34.9676
rfingers 7.12502
rthumb 17.9414 -64.16
lclavicle 2.04748e-014 2.0276e-014
lhumerus -24.2763 1.67765 83.8589
lradius 19.9526
lwrist -6.09523
lhand -21.0662 -23.7344
lfingers 7.12502
lthumb 5.31045 6.17907
rfemur 12.4185 -11.6506 18.8362
rtibia 6.98001
rfoot -22.6477 -16.2384
rtoes 5.3225
lfemur -12.9225 10.0827 2.95835
ltibia 21.1999
lfoot -11.9262 15.1587
ltoes -10.1519
209
root -29.9094 16.7066 0.750987 -169.814 63.0188 -167.107
lowerback 8.01461 0.66032 4.23878
upperback 8.46076 1.58588 0.602256
thorax 4.41389 1.22298 -1.79009
lowerneck -20.1253 4.62073 5.3515
upperneck 28.9892 8.89043 -9.35014
head 13.9422 3.4859 -2.96962
rclavicle 3.67752e-014 6.36111e-015
rhumerus -23.5652 20.232 -92.8499
rradius 34.5122
rwrist -2.40393
rhand -8.10915 -34.7409
rfingers 7.12502
rthumb 17.8038 -63.9459
lclavicle 3.67752e-014 6.36111e-015
lhumerus -24.3326 2.44011 83.4788
lradius 19.4016
lwrist -6.99075
lhand -20.8445 -23.505
lfingers 7.12502
lthumb 5.52445 6.40298
rfemur 12.5984 -11.9821 18.4321
rtibia 6.95833
rfoot -22.6933 -16.1177
rtoes 5.12392
lfemur -13.0136 10.1421 2.70895
ltibia 21.0957
lfoot -11.5638 15.2371
ltoes -10.4934
210
root -29.8838 16.6978 0.690196 -169.481 62.6381 -166.831
lowerback 7.91948 0.620831 4.16167
upperback 8.45578 1.5243 0.595296
thorax 4.45475 1.18842 -1.74977
lowerneck -20.3849 4.68505 5.25983
upperneck 29.0274 8.97221 -9.25052
head 14.0121 3.51174 -2.89546
rclavicle 3.91606e-014 -3.37934e-014
rhumerus -23.5767 20.4519 -92.921
rradius 34.8976
rwrist -3.10856
rhand -8.47574 -34.1987
rfingers 7.12502
rthumb 17.451 -63.4353
lclavicle 3.91606e-014 -3.37934e-014
lhumerus -24.1785 3.73827 83.0617
lradius 18.7619
lwrist -8.14377
lhand -20.6845 -23.491
lfingers 7.12502
lthumb 5.67895 6.41292
rfemur 12.7078 -11.8856 18.5859
rtibia 6.94117
rfoot -22.9386 -16.5029
rtoes 5.0933
lfemur -13.2161 10.6221 2.78807
ltibia 21.3024
lfoot -10.8824 14.9173
ltoes -11.2287
211
root -29.8589 16.6871 0.625555 -169.391 62.3686 -166.829
lowerback 7.82298 0.613061 4.00841
upperback 8.39531 1.49754 0.542986
thorax 4.43831 1.16406 -1.71684
lowerneck -20.3605 4.75562 5.23125
upperneck 28.9168 9.11544 -9.36225
head 13.9797 3.55865 -2.90595
rclavicle -1.25234e-014 5.56597e-015
rhumerus -23.7745 20.5791 -92.9786
rradius 35.389
rwrist -3.53874
rhand -8.74726 -33.9027
rfingers 7.12502
rthumb 17.1897 -63.1623
lclavicle -1.25234e-014 5.56597e-015
lhumerus -24.4553 2.81562 83.2685
lradius 18.8416
lwrist -6.78818
lhand -21.012 -22.8474
lfingers 7.12502
lthumb 5.36276 7.0647
rfemur 12.8511 -11.8163 18.5167
rtibia 6.88602
rfoot -23.0637 -16.767
rtoes 4.67798
lfemur -13.4082 11.3983 2.70032
ltibia 21.7557
lfoot -10.3251 14.4169
ltoes -9.9483
212
root -29.8355 16.6764 0.559031 -169.486 62.1539 -167.021
lowerback 7.72779 0.715932 3.93468
upperback 8.37652 1.62973 0.311943
thorax 4.48445 1.23243 -1.91835
lowerneck -20.5046 4.74062 5.36774
upperneck 28.8351 9.01397 -9.35867
head 13.9718 3.52305 -2.94412
rclavicle -4.85035e-014 3.45885e-014
rhumerus -23.8015 20.1054 -93.108
rradius 35.7819
rwrist -3.72363
rhand -8.75883 -34.1769
rfingers 7.12502
rthumb 17.1786 -63.4375
lclavicle -4.85035e-014 3.45885e-014
lhumerus -24.5284 1.69942 83.3187
lradius 18.8734
lwrist -5.48696
lhand -21.1204 -22.2515
lfingers 7.12502
lthumb 5.25811 7.66326
rfemur 13.0466 -12.0601 18.1347
rtibia 6.84528
rfoot -23.0599 -16.6757
rtoes 3.93194
lfemur -13.5618 11.8247 2.44283
ltibia 22.3038
lfoot -10.0099 14.0451
ltoes -7.30138
213
root -29.8148 16.6663 0.494486 -168.984 61.9193 -166.519
lowerback 7.70931 0.792537 4.07464
upperback 8.34281 1.7374 0.247617
thorax 4.47366 1.29416 -2.06717
lowerneck -20.5553 4.71598 5.33712
upperneck 28.7492 8.96987 -9.35436
head 13.9395 3.49949 -2.94294
rclavicle -1.47101e-014 5.56597e-015
rhumerus -23.7983 19.8337 -93.1601
rradius 36.0839
rwrist -4.14621
rhand -8.80833 -34.3608
rfingers 7.12502
rthumb 17.1309 -63.6256
lclavicle -1.47101e-014 5.56597e-015
lhumerus -24.1215 4.60166 82.4113
lradius 17.7433
lwrist -8.22658
lhand -20.5414 -22.6255
lfingers 7.12502
lthumb 5.81712 7.27468
rfemur 13.1654 -11.9872 18.3264
rtibia 6.85061
rfoot -23.1382 -16.9083
rtoes 2.92267
lfemur -13.7597 12.1706 2.53973
ltibia 22.9892
lfoot -9.54715 13.8168
ltoes -8.43336
214
root -29.7933 16.6558 0.427101 -168.346 61.7981 -165.818
lowerback 7.73224 0.863673 4.199
upperback 8.32298 1.83864 0.263631
thorax 4.45133 1.3501 -2.12432
lowerneck -20.6467 4.7095 5.21957
upperneck 28.7229 9.02189 -9.41601
head 13.9518 3.49899 -2.93548
rclavicle -3.04141e-014 3.97569e-015
rhumerus -23.8927 19.6589 -93.1599
rradius 36.478
rwrist -4.42095
rhand -8.96747 -34.482
rfingers 7.12502
rthumb 16.9778 -63.76
lclavicle -3.04141e-014 3.97569e-015
lhumerus -23.7943 7.73821 81.5285
lradius 16.5968
lwrist -10.9852
lhand -20.0776 -23.1778
lfingers 7.12502
lthumb 6.26492 6.70959
rfemur 13.248 -11.6324 18.7046
rtibia 6.93545
rfoot -23.2567 -17.2739
rtoes 1.88956
lfemur -13.9028 12.8261 2.73275
ltibia 23.7597
lfoot -9.32435 13.3821
ltoes -11.4279
215
root -29.7697 16.6445 0.354995 -168.275 61.7547 -165.786
lowerback 7.67872 0.973199 4.03518
upperback 8.3246 1.97735 0.147571
thorax 4.49027 1.4148 -2.1563
lowerneck -20.9116 4.66942 5.18416
upperneck 28.7861 8.96438 -9.39772
head 14.0277 3.46114 -2.9311
rclavicle 7.31528e-014 -4.05521e-014
rhumerus -24.01 19.3439 -93.1589
rradius 36.8794
rwrist -4.48291
rhand -9.05754 -34.5684
rfingers 7.12502
rthumb 16.8911 -63.8538
lclavicle 7.31528e-014 -4.05521e-014
lhumerus -23.6982 8.65379 81.1573
lradius 16.1135
lwrist -11.4849
lhand -19.7382 -23.609
lfingers 7.12502
lthumb 6.59254 6.26836
rfemur 13.2981 -11.3795 18.6078
rtibia 7.11015
rfoot -23.4393 -17.4983
rtoes 1.08504
lfemur -14.0129 13.2589 2.55106
ltibia 24.3313
lfoot -9.71634 12.8986
ltoes -11.7323
216
root -29.7473 16.6348 0.283477 -168.35 61.6537 -165.949
lowerback 7.60233 1.11969 3.79099
upperback 8.29875 2.16011 0.000756737
thorax 4.51326 1.49642 -2.17645
lowerneck -20.9847 4.60031 5.15669
upperneck 28.6968 8.81504 -9.30625
head 13.9824 3.40179 -2.91542
rclavicle -4.96962e-014 2.22639e-014
rhumerus -24.1372 18.9963 -93.1447
rradius 37.1606
rwrist -4.9383
rhand -9.45966 -34.1916
rfingers 7.12502
rthumb 16.5039 -63.5096
lclavicle -4.96962e-014 2.22639e-014
lhumerus -23.7198 8.41695 81.2124
lradius 16.0411
lwrist -11.7083
lhand -20.3878 -23.1938
lfingers 7.12502
lthumb 5.96542 6.70226
rfemur 13.3352 -10.8973 18.5487
rtibia 7.19021
rfoot -23.6951 -17.96
rtoes 1.65546
lfemur -14.1661 13.4126 2.28956
ltibia 24.6997
lfoot -10.2914 12.4719
ltoes -10.4539
